<svg preserveAspectRatio="none" width="100%" height="100%" overflow="visible" style="display: block;" viewBox="0 0 24 24" fill="none" xmlns="http://www.w3.org/2000/svg">
<g id="video">
<path id="Vector" d="M16.0003 13.0003L21.2237 16.4823C21.299 16.5324 21.3865 16.5611 21.4769 16.5654C21.5672 16.5698 21.657 16.5495 21.7368 16.5068C21.8165 16.4641 21.8832 16.4006 21.9297 16.323C21.9762 16.2454 22.0008 16.1567 22.0008 16.0663V7.87027C22.0008 7.78229 21.9776 7.69586 21.9336 7.61971C21.8895 7.54356 21.8261 7.48039 21.7498 7.43656C21.6735 7.39274 21.587 7.36982 21.4991 7.37012C21.4111 7.37042 21.3247 7.39392 21.2487 7.43827L16.0003 10.5003M3.99936 6H14.0002C15.1048 6 16.0003 6.89543 16.0003 8V16C16.0003 17.1046 15.1048 18 14.0002 18H3.99936C2.8947 18 1.9992 17.1046 1.9992 16V8C1.9992 6.89543 2.8947 6 3.99936 6Z" stroke="var(--stroke-0, #E4002B)" stroke-width="2" stroke-linecap="round"/>
</g>
</svg>
