<svg preserveAspectRatio="none" width="100%" height="100%" overflow="visible" style="display: block;" viewBox="0 0 40.5 21.51" fill="none" xmlns="http://www.w3.org/2000/svg">
<g id="Logo">
<path id="Union" fill-rule="evenodd" clip-rule="evenodd" d="M14.5707 0.698148C15.2243 0.945821 15.4635 1.7176 15.1407 2.33745L13.6913 5.12124C13.3685 5.74109 12.6039 5.96434 11.9235 5.80424C11.2644 5.64918 10.5768 5.62619 9.90112 5.7416C8.80637 5.92859 7.8029 6.46858 7.04389 7.27915C6.28489 8.08972 5.81206 9.12633 5.69757 10.2307C5.58309 11.3351 5.83325 12.4467 6.40986 13.3956C6.98648 14.3445 7.85786 15.0788 8.89099 15.4862C9.92412 15.8937 11.0622 15.9519 12.1316 15.6521C13.172 15.3604 14.0917 14.7454 14.7583 13.8972H12.8251C12.1262 13.8972 11.5595 13.3307 11.5595 12.6319V10.1013C11.5595 9.40247 12.1262 8.83598 12.8251 8.83598H20.4641C21.2356 8.83598 21.8276 9.52009 21.7166 10.2833L21.4621 12.0331L21.2704 12.9038C21.2623 12.9407 21.2526 12.977 21.2414 13.0125C20.9111 14.5307 20.2831 15.9953 19.3336 17.2485C17.9157 19.1202 15.924 20.4765 13.6628 21.1105C11.4015 21.7445 8.99481 21.6213 6.81015 20.7597C4.62548 19.8981 2.78284 18.3455 1.56353 16.3388C0.344224 14.3322 -0.184765 11.9818 0.0573198 9.64638C0.299405 7.311 1.29926 5.11898 2.90426 3.40494C4.50925 1.6909 6.6312 0.549024 8.94617 0.153622C10.8435 -0.170444 12.785 0.0215088 14.5707 0.698148Z" fill="var(--fill-0, #1A1A2E)"/>
<path id="Vector 6" d="M22.78 3.79588V1.26529C22.78 0.566492 23.3467 9.12268e-10 24.0457 9.12268e-10H39.2343C39.9333 9.12268e-10 40.5 0.566492 40.5 1.26529V4.53707C40.5 4.87265 40.3666 5.19448 40.1293 5.43177L31.2693 14.2888C30.4719 15.0859 31.0366 16.4488 32.1643 16.4488H39.2343C39.9333 16.4488 40.5 17.0153 40.5 17.7141V20.2447C40.5 20.9435 39.9333 21.51 39.2343 21.51H24.0458C23.3467 21.51 22.78 20.9434 22.7801 20.2446L22.7803 17.5422C22.7804 16.8361 23.0396 16.1546 23.5089 15.627L31.0327 7.16718C31.7584 6.35122 31.179 5.06118 30.0868 5.06118H24.0457C23.3467 5.06118 22.78 4.49468 22.78 3.79588Z" fill="var(--fill-0, #1A1A2E)"/>
</g>
</svg>
