<svg preserveAspectRatio="none" width="100%" height="100%" overflow="visible" style="display: block;" viewBox="0 0 56.3 29.9" fill="none" xmlns="http://www.w3.org/2000/svg">
<g id="Logo">
<path id="Union" fill-rule="evenodd" clip-rule="evenodd" d="M20.2367 0.969813C21.1445 1.31386 21.4767 2.38595 21.0284 3.247L19.0153 7.11402C18.5671 7.97507 17.505 8.28519 16.5601 8.0628C15.6448 7.84739 14.6898 7.81545 13.7513 7.97578C12.2308 8.23552 10.8372 8.98564 9.78301 10.1116C8.72885 11.2376 8.07215 12.6776 7.91315 14.2117C7.75415 15.7459 8.10159 17.2899 8.90242 18.6081C9.70326 19.9263 10.9135 20.9463 12.3484 21.5123C13.7833 22.0782 15.3639 22.1592 16.8491 21.7427C18.2941 21.3375 19.5715 20.4831 20.4973 19.3048H17.8124C16.8416 19.3048 16.0546 18.5179 16.0546 17.5472V14.0319C16.0546 13.0612 16.8416 12.2742 17.8124 12.2742H28.4219C29.4933 12.2742 30.3155 13.2246 30.1614 14.2848L29.8079 16.7154L29.5417 17.925C29.5304 17.9763 29.517 18.0266 29.5014 18.0759C29.0427 20.1848 28.1704 22.2194 26.8518 23.9603C24.8824 26.5602 22.1163 28.4443 18.9757 29.325C15.8351 30.2057 12.4926 30.0346 9.45836 28.8377C6.42416 27.6409 3.86499 25.4841 2.17153 22.6966C0.47808 19.9091 -0.256614 16.6441 0.0796094 13.4C0.415833 10.1559 1.8045 7.11088 4.03362 4.72987C6.26274 2.34887 9.20984 0.762661 12.425 0.2134C15.0601 -0.236767 17.7567 0.0298783 20.2367 0.969813Z" fill="var(--fill-0, #1A1A2E)"/>
<path id="Vector 6" d="M31.64 5.27294V1.75765C31.64 0.786925 32.427 1.26725e-09 33.3979 1.26725e-09H54.4921C55.463 1.26725e-09 56.25 0.786925 56.25 1.75765V6.30255C56.25 6.7687 56.0648 7.21577 55.7351 7.54539L43.4301 19.8489C42.3227 20.9562 43.107 22.8494 44.6731 22.8494H54.4921C55.463 22.8494 56.25 23.6363 56.25 24.6071V28.1224C56.25 29.0931 55.463 29.88 54.4921 29.88H33.398C32.4271 29.88 31.6401 29.093 31.6401 28.1222L31.6404 24.3683C31.6405 23.3874 32.0006 22.4408 32.6523 21.7078L43.1016 9.95608C44.1094 8.82261 43.3047 7.03059 41.7879 7.03059H33.3979C32.427 7.03059 31.64 6.24366 31.64 5.27294Z" fill="var(--fill-0, #1A1A2E)"/>
</g>
</svg>
