<svg preserveAspectRatio="none" width="100%" height="100%" overflow="visible" style="display: block;" viewBox="0 0 60 60" fill="none" xmlns="http://www.w3.org/2000/svg">
<g id="Hypothesis 1 Checkmark">
<path id="Vector" d="M24.7264 51.4575C25.8064 51.4575 26.6604 50.9807 27.2625 50.0518L50.9936 12.6857C51.4457 11.9571 51.6471 11.4054 51.6471 10.8268C51.6471 9.44571 50.7171 8.5425 49.3361 8.5425C48.3568 8.5425 47.7793 8.86821 47.1761 9.82286L24.6257 45.7575L12.9236 30.4393C12.2968 29.5607 11.6936 29.2093 10.7646 29.2093C9.35786 29.2093 8.35393 30.1886 8.35393 31.5696C8.35393 32.1471 8.60464 32.7996 9.0825 33.4018L22.1143 50.0025C22.8921 50.9818 23.6464 51.4596 24.7254 51.4596" fill="var(--fill-0, #D1F997)"/>
</g>
</svg>
