<svg preserveAspectRatio="none" width="100%" height="100%" overflow="visible" style="display: block;" viewBox="0 0 279 251" fill="none" xmlns="http://www.w3.org/2000/svg">
<g id="Our-space-Logo 1">
<path id="Vector" d="M19.368 245.036C16.1694 245.036 13.3301 244.354 10.8502 242.988C8.40626 241.586 6.50142 239.645 5.13569 237.165C3.76996 234.65 3.0871 231.756 3.0871 228.486C3.0871 224.497 3.91373 220.795 5.56698 217.38C7.25617 213.93 9.57432 211.199 12.5214 209.186C15.5045 207.137 18.8649 206.113 22.6027 206.113C25.8014 206.113 28.6227 206.814 31.0666 208.216C33.5465 209.581 35.4693 211.522 36.835 214.038C38.2007 216.518 38.8836 219.393 38.8836 222.664C38.8836 226.653 38.039 230.373 36.3498 233.823C34.6966 237.237 32.3784 239.969 29.3954 242.017C26.4483 244.03 23.1058 245.036 19.368 245.036ZM19.7993 239.16C22.3151 239.16 24.5075 238.405 26.3764 236.896C28.2812 235.386 29.7368 233.392 30.7431 230.912C31.7854 228.396 32.3065 225.736 32.3065 222.933C32.3065 219.555 31.408 216.895 29.611 214.954C27.814 212.978 25.3341 211.989 22.1714 211.989C19.6556 211.989 17.4452 212.744 15.5404 214.254C13.6715 215.763 12.2159 217.758 11.1737 220.238C10.1673 222.717 9.66417 225.377 9.66417 228.216C9.66417 231.595 10.5627 234.272 12.3597 236.249C14.1567 238.19 16.6366 239.16 19.7993 239.16ZM57.4903 245.036C54.7229 245.036 52.3149 244.479 50.2663 243.365C48.2177 242.251 46.6363 240.688 45.5222 238.675C44.444 236.662 43.9049 234.308 43.9049 231.613C43.9049 230.642 44.0306 229.366 44.2822 227.785L48.002 206.706H54.4713L50.6976 228.109C50.5179 229.007 50.428 230.013 50.428 231.127C50.428 233.643 51.057 235.62 52.3149 237.058C53.6087 238.459 55.4597 239.16 57.8677 239.16C60.1678 239.16 62.0727 238.351 63.5822 236.734C65.1276 235.117 66.1878 232.745 66.7629 229.618L70.8061 206.706H77.2754L73.1243 230.373C72.3336 234.973 70.5366 238.567 67.7333 241.155C64.9659 243.743 61.5515 245.036 57.4903 245.036ZM109.446 217.003C109.446 219.698 108.619 222.106 106.966 224.227C105.312 226.347 103.21 227.803 100.658 228.594L107.613 244.443H100.82L94.6202 229.618H87.2345L84.6468 244.443H78.1776L84.8085 206.706H98.1244C100.389 206.706 102.383 207.173 104.108 208.108C105.834 209.042 107.145 210.3 108.044 211.881C108.978 213.427 109.446 215.134 109.446 217.003ZM90.1996 212.313L88.0971 224.173H96.1297C98.2143 224.173 99.8675 223.544 101.089 222.286C102.347 221.028 102.976 219.429 102.976 217.488C102.976 215.943 102.419 214.703 101.305 213.768C100.191 212.798 98.5916 212.313 96.5071 212.313H90.1996ZM131.595 245.036C127.462 245.036 124.012 244.048 121.244 242.071C118.477 240.095 116.644 237.291 115.746 233.661L121.622 232.745C123.131 237.13 126.42 239.322 131.487 239.322C133.788 239.322 135.585 238.873 136.878 237.974C138.208 237.04 138.873 235.638 138.873 233.769C138.873 232.547 138.478 231.559 137.687 230.804C136.932 230.049 135.962 229.456 134.776 229.025C133.626 228.594 132.062 228.144 130.086 227.677C127.39 226.994 125.216 226.311 123.563 225.629C121.909 224.946 120.49 223.886 119.304 222.448C118.154 220.974 117.578 219.016 117.578 216.572C117.578 214.451 118.136 212.6 119.25 211.019C120.4 209.438 121.981 208.234 123.994 207.407C126.042 206.544 128.343 206.113 130.894 206.113C134.668 206.113 137.777 207.012 140.221 208.809C142.665 210.606 144.282 213.139 145.073 216.41L139.304 217.273C138.19 213.535 135.387 211.666 130.894 211.666C128.846 211.666 127.192 212.079 125.935 212.906C124.677 213.696 124.048 214.918 124.048 216.572C124.048 217.758 124.425 218.728 125.18 219.483C125.935 220.238 126.887 220.813 128.037 221.208C129.223 221.603 130.804 222.035 132.781 222.502C135.441 223.149 137.615 223.814 139.304 224.497C140.994 225.143 142.431 226.204 143.617 227.677C144.803 229.115 145.396 231.092 145.396 233.607C145.396 237.237 144.156 240.059 141.676 242.071C139.232 244.048 135.872 245.036 131.595 245.036ZM164.9 206.706C167.344 206.706 169.536 207.227 171.477 208.269C173.453 209.276 174.981 210.695 176.059 212.528C177.173 214.325 177.73 216.374 177.73 218.674C177.73 220.974 177.173 223.041 176.059 224.874C174.981 226.671 173.453 228.091 171.477 229.133C169.536 230.175 167.344 230.696 164.9 230.696H157.298V244.443H150.829V206.706H164.9ZM164.145 225.09C166.409 225.09 168.152 224.532 169.374 223.418C170.632 222.268 171.261 220.687 171.261 218.674C171.261 216.697 170.632 215.152 169.374 214.038C168.152 212.888 166.409 212.313 164.145 212.313H157.298V225.09H164.145ZM210.07 244.443H203.601L200.743 235.44H185.972L183.115 244.443H176.807L189.26 206.706H197.616L210.07 244.443ZM193.196 212.421L187.643 230.103H199.072L193.465 212.421H193.196ZM229.765 245.036C226.207 245.036 223.044 244.228 220.277 242.61C217.545 240.957 215.425 238.657 213.915 235.71C212.406 232.763 211.651 229.384 211.651 225.575C211.651 221.765 212.406 218.387 213.915 215.44C215.425 212.492 217.545 210.21 220.277 208.593C223.008 206.94 226.153 206.113 229.711 206.113C233.736 206.113 237.133 207.173 239.9 209.294C242.703 211.414 244.68 214.433 245.83 218.351L239.738 219.213C238.983 216.877 237.744 215.098 236.018 213.876C234.293 212.618 232.173 211.989 229.657 211.989C226.135 211.989 223.349 213.211 221.301 215.655C219.252 218.099 218.228 221.406 218.228 225.575C218.228 229.744 219.252 233.05 221.301 235.494C223.349 237.938 226.153 239.16 229.711 239.16C232.263 239.16 234.419 238.531 236.18 237.273C237.941 236.015 239.217 234.218 240.008 231.882L246.046 232.799C244.896 236.716 242.901 239.735 240.062 241.856C237.258 243.976 233.826 245.036 229.765 245.036ZM258.063 228.055V238.837H276.177V244.443H251.648V206.706H275.907V212.313H258.063V222.61H274.021V228.055H258.063Z" fill="var(--fill-0, #FAFAFA)"/>
<g id="Group" opacity="0.05" filter="url(#filter0_f_0_7)">
<path id="Vector_2" d="M136.273 186.984C176.862 186.984 209.765 154.081 209.765 113.492C209.765 72.9034 176.862 39.9998 136.273 39.9998C95.6844 39.9998 62.7808 72.9034 62.7808 113.492C62.7808 154.081 95.6844 186.984 136.273 186.984Z" fill="var(--fill-0, #FAFAFA)"/>
</g>
<path id="Vector_3" d="M95.417 141.715C95.417 164.902 114.214 183.699 137.401 183.699H149.287C168.228 183.699 183.583 168.344 183.583 149.403C183.583 130.462 168.228 115.107 149.287 115.107H95.417V141.715Z" fill="var(--fill-0, white)"/>
<path id="Vector_4" d="M183.583 81.0366C183.583 57.8496 164.786 39.0527 141.599 39.0527H129.713C110.772 39.0527 95.4168 54.4075 95.4168 73.3486C95.4168 92.2897 110.772 107.645 129.713 107.645H183.583V81.0366Z" fill="var(--fill-0, black)"/>
</g>
<defs>
<filter id="filter0_f_0_7" x="22.7808" y="-0.000198364" width="226.984" height="226.984" filterUnits="userSpaceOnUse" color-interpolation-filters="sRGB">
<feFlood flood-opacity="0" result="BackgroundImageFix"/>
<feBlend mode="normal" in="SourceGraphic" in2="BackgroundImageFix" result="shape"/>
<feGaussianBlur stdDeviation="20" result="effect1_foregroundBlur_0_7"/>
</filter>
</defs>
</svg>
