<svg preserveAspectRatio="none" width="100%" height="100%" overflow="visible" style="display: block;" viewBox="0 0 36.9722 36.9722" fill="none" xmlns="http://www.w3.org/2000/svg">
<g id="Back Icon">
<path id="Vector" d="M33.1086 23.0509C33.1086 17.1399 29.1169 13.0552 22.0453 13.0552H11.6621L8.02561 13.2248L10.9662 10.718L15.4227 6.3546C15.6696 6.10702 15.7937 5.81322 15.7937 5.41049C15.7937 4.60634 15.2524 4.04912 14.4324 4.04912C14.0917 4.04912 13.689 4.21945 13.4262 4.48222L4.32773 13.4103C4.01809 13.7048 3.8636 14.0607 3.8636 14.4469C3.8636 14.8186 4.01809 15.1745 4.32773 15.4689L13.4262 24.397C13.6922 24.6672 14.0533 24.8226 14.4324 24.8301C15.2524 24.8301 15.7937 24.2736 15.7937 23.4688C15.7937 23.066 15.6696 22.7722 15.4227 22.5247L10.9662 18.1765L8.02561 15.6696L11.6621 15.8248H22.2771C27.5535 15.8248 30.3548 18.7337 30.3548 22.8957C30.3548 27.0742 27.5535 30.1687 22.2771 30.1687H18.7185C17.8668 30.1687 17.3103 30.7879 17.3103 31.5459C17.3103 32.3045 17.8675 32.9231 18.7185 32.9231H22.2929C29.2252 32.9231 33.1086 28.9776 33.1086 23.0509Z" fill="var(--fill-0, #151515)"/>
</g>
</svg>
