<svg preserveAspectRatio="none" width="100%" height="100%" overflow="visible" style="display: block;" viewBox="0 0 36.9722 36.9722" fill="none" xmlns="http://www.w3.org/2000/svg">
<g id="24px/atem&#195;&#188;bung">
<path id="Vector" d="M4.0643 14.0527C6.29254 13.341 8.59868 12.9852 10.7959 12.9852C13.6427 12.9852 15.7317 13.4341 18.424 13.4341C21.2095 13.4341 22.9426 11.5459 22.9426 9.08592C22.9426 6.56389 21.0081 4.76809 18.6254 4.76809C16.8613 4.76809 15.3138 5.86736 14.6641 7.337C14.4165 7.84801 14.5096 8.45145 15.051 8.73006C15.5462 8.97764 16.1496 8.82249 16.4744 8.18868C16.8151 7.39906 17.6503 6.78044 18.6254 6.78044C19.9095 6.78044 20.9157 7.67767 20.9157 9.08592C20.9157 10.4942 19.9406 11.4218 18.424 11.4218C15.8558 11.4218 13.7358 10.9576 10.7959 10.9576C8.27385 10.9576 5.72013 11.4066 3.44568 12.1328C2.79536 12.319 2.54778 12.8762 2.70293 13.4176C2.85742 13.9438 3.36843 14.2541 4.0643 14.0527ZM28.2659 21.294C31.8707 21.294 34.4244 19.0037 34.4244 15.801C34.4244 12.6438 31.9948 10.3542 28.9776 10.3542C26.177 10.3542 24.1032 12.3038 23.7315 14.8721C23.6391 15.5065 23.995 16.0175 24.5515 16.0948C25.1246 16.172 25.6198 15.8162 25.7432 15.0886C26.0066 13.4797 27.3528 12.3652 28.9776 12.3652C30.8659 12.3652 32.3976 13.7735 32.3976 15.801C32.3976 17.8589 30.7728 19.2823 28.2659 19.2823C23.546 19.2823 18.4551 16.59 12.2655 16.59C9.078 16.59 6.16908 17.1003 3.44502 18.0754C2.81121 18.292 2.54778 18.8334 2.70293 19.3754C2.85742 19.9016 3.38362 20.2264 4.0643 19.994C6.58633 19.0347 9.2173 18.6168 12.2655 18.6168C18.4399 18.6168 23.0509 21.294 28.2659 21.294ZM18.4399 32.2035C20.8233 32.2035 22.664 30.4394 22.664 27.9173C22.664 24.2657 18.9351 22.2229 12.0642 22.2229C9.18627 22.2229 6.07599 22.7802 3.44568 23.6932C2.81121 23.9098 2.54778 24.4512 2.70293 24.9926C2.85742 25.5187 3.38362 25.8442 4.0643 25.6118C6.52493 24.7298 9.27936 24.2505 12.0648 24.2505C17.6813 24.2505 20.6523 25.6581 20.6523 27.9173C20.6523 29.3407 19.662 30.1924 18.4399 30.1924C17.2172 30.1924 16.4744 29.3718 16.2579 28.0718C16.1654 27.4994 15.7475 27.0353 15.082 27.0815C14.3855 27.1277 14.1069 27.7166 14.2 28.3352C14.4786 30.4862 16.0723 32.2035 18.4399 32.2035Z" fill="var(--fill-0, black)"/>
</g>
</svg>
