<svg preserveAspectRatio="none" width="100%" height="100%" overflow="visible" style="display: block;" viewBox="0 0 36.9722 36.9722" fill="none" xmlns="http://www.w3.org/2000/svg">
<g id="24px/calendar">
<path id="Vector" d="M7.91733 32.7296H29.0549C32.2893 32.7296 33.9141 31.1207 33.9141 27.9332V9.03838C33.9141 5.85085 32.2893 4.2419 29.0549 4.2419H7.91733C4.69877 4.2419 3.05813 5.83567 3.05813 9.03838V27.9338C3.05813 31.1365 4.69877 32.7296 7.91733 32.7296ZM7.70078 30.2393C6.32357 30.2393 5.54979 29.5117 5.54979 28.0725V13.481C5.54979 12.0576 6.32357 11.3148 7.70078 11.3148H29.2562C30.6328 11.3148 31.4218 12.0576 31.4218 13.481V28.0725C31.4218 29.5117 30.6328 30.238 29.2562 30.238L7.70078 30.2393ZM15.4531 16.8699H16.3661C16.9075 16.8699 17.0937 16.7147 17.0937 16.1734V15.2603C17.0937 14.7189 16.9082 14.5486 16.3661 14.5486H15.4531C14.9117 14.5486 14.7413 14.7189 14.7413 15.2603V16.1734C14.7413 16.7147 14.9117 16.8699 15.4531 16.8699ZM20.6061 16.8699H21.504C22.0605 16.8699 22.2309 16.7147 22.2309 16.1734V15.2603C22.2309 14.7189 22.0605 14.5486 21.5033 14.5486H20.6061C20.0647 14.5486 19.8792 14.7189 19.8792 15.2603V16.1734C19.8792 16.7147 20.064 16.8699 20.6061 16.8699ZM25.7432 16.8699H26.6563C27.1977 16.8699 27.3839 16.7147 27.3839 16.1734V15.2603C27.3839 14.7189 27.1977 14.5486 26.6563 14.5486H25.7432C25.2018 14.5486 25.0163 14.7189 25.0163 15.2603V16.1734C25.0163 16.7147 25.2018 16.8699 25.7432 16.8699ZM10.3159 21.9298H11.229C11.7704 21.9298 11.9565 21.7746 11.9565 21.2333V20.3202C11.9565 19.7788 11.7704 19.6243 11.229 19.6243H10.3159C9.77453 19.6243 9.58901 19.7788 9.58901 20.3202V21.2333C9.58901 21.7746 9.77387 21.9298 10.3159 21.9298ZM15.4531 21.9298H16.3661C16.9075 21.9298 17.0937 21.7746 17.0937 21.2333V20.3202C17.0937 19.7788 16.9082 19.6243 16.3661 19.6243H15.4531C14.9117 19.6243 14.7413 19.7788 14.7413 20.3202V21.2333C14.7413 21.7746 14.9117 21.9298 15.4531 21.9298ZM20.6061 21.9298H21.504C22.0605 21.9298 22.2309 21.7746 22.2309 21.2333V20.3202C22.2309 19.7788 22.0605 19.6243 21.5033 19.6243H20.6061C20.0647 19.6243 19.8792 19.7788 19.8792 20.3202V21.2333C19.8792 21.7746 20.064 21.9298 20.6061 21.9298ZM25.7432 21.9298H26.6563C27.1977 21.9298 27.3839 21.7746 27.3839 21.2333V20.3202C27.3839 19.7788 27.1977 19.6243 26.6563 19.6243H25.7432C25.2018 19.6243 25.0163 19.7788 25.0163 20.3202V21.2333C25.0163 21.7746 25.2018 21.9298 25.7432 21.9298ZM10.3159 27.0049H11.229C11.7704 27.0049 11.9565 26.8346 11.9565 26.2932V25.3801C11.9565 24.8387 11.7704 24.6842 11.229 24.6842H10.3159C9.77453 24.6842 9.58901 24.8387 9.58901 25.3801V26.2932C9.58901 26.8346 9.77387 27.0049 10.3159 27.0049ZM15.4531 27.0049H16.3661C16.9075 27.0049 17.0937 26.8346 17.0937 26.2932V25.3801C17.0937 24.8387 16.9082 24.6842 16.3661 24.6842H15.4531C14.9117 24.6842 14.7413 24.8387 14.7413 25.3801V26.2932C14.7413 26.8346 14.9117 27.0049 15.4531 27.0049ZM20.6061 27.0049H21.504C22.0605 27.0049 22.2309 26.8346 22.2309 26.2932V25.3801C22.2309 24.8387 22.0605 24.6842 21.5033 24.6842H20.6061C20.0647 24.6842 19.8792 24.8387 19.8792 25.3801V26.2932C19.8792 26.8346 20.064 27.0049 20.6061 27.0049Z" fill="var(--fill-0, #151515)"/>
</g>
</svg>
