<svg preserveAspectRatio="none" width="100%" height="100%" overflow="visible" style="display: block;" viewBox="0 0 36.9722 36.9722" fill="none" xmlns="http://www.w3.org/2000/svg">
<g id="24px/calendar+" clip-path="url(#clip0_0_145)">
<path id="Vector" d="M32.1922 3.1565H11.3313C8.13983 3.1565 6.53616 4.7298 6.53616 7.89092V16.6111C6.94813 16.5649 7.36143 16.5345 7.75756 16.5345C8.1702 16.5345 8.58283 16.5649 8.99481 16.6111V12.2735C8.99481 10.8685 9.75868 10.1357 11.1022 10.1357H32.3903C33.7503 10.1357 34.5136 10.8685 34.5136 12.2741V26.6748C34.5136 28.0949 33.7497 28.8126 32.3903 28.8126H17.272C17.0739 29.6834 16.7372 30.508 16.2948 31.2712H32.1922C35.3837 31.2712 36.9722 29.6834 36.9722 26.5375V7.89092C36.9722 4.74499 35.3837 3.1565 32.1922 3.1565ZM20.2502 15.6181H21.1507C21.6855 15.6181 21.8532 15.4656 21.8532 14.9315V14.0296C21.8532 13.4949 21.6855 13.3272 21.1507 13.3272H20.2502C19.7154 13.3272 19.5319 13.4949 19.5319 14.0296V14.9302C19.5319 15.4649 19.7154 15.6181 20.2502 15.6181ZM24.5872 15.6175H25.4877C26.0225 15.6175 26.1902 15.4649 26.1902 14.9308V14.0296C26.1902 13.4949 26.0225 13.3272 25.4877 13.3272H24.5872C24.0524 13.3272 23.8695 13.4949 23.8695 14.0296V14.9302C23.8695 15.4649 24.0524 15.6175 24.5872 15.6175ZM28.9241 15.6175H29.8253C30.3601 15.6175 30.5278 15.4649 30.5278 14.9308V14.0296C30.5278 13.4949 30.3595 13.3272 29.8253 13.3272H28.9241C28.3894 13.3272 28.2065 13.4949 28.2065 14.0296V14.9302C28.2065 15.4649 28.3894 15.6175 28.9241 15.6175ZM15.9126 20.612H16.8138C17.3485 20.612 17.5162 20.4595 17.5162 19.9254V19.0235C17.5162 18.4887 17.3485 18.3369 16.8138 18.3369H15.9126C15.3778 18.3369 15.1949 18.4887 15.1949 19.0235V19.9247C15.1949 20.4595 15.3785 20.612 15.9126 20.612ZM20.2502 20.612H21.1507C21.6855 20.612 21.8532 20.4595 21.8532 19.9254V19.0235C21.8532 18.4887 21.6855 18.3369 21.1507 18.3369H20.2502C19.7154 18.3369 19.5319 18.4887 19.5319 19.0235V19.9247C19.5319 20.4595 19.7154 20.612 20.2502 20.612ZM24.5872 20.612H25.4877C26.0225 20.612 26.1902 20.4595 26.1902 19.9254V19.0235C26.1902 18.4887 26.0225 18.3369 25.4877 18.3369H24.5872C24.0524 18.3369 23.8695 18.4887 23.8695 19.0235V19.9247C23.8695 20.4595 24.0524 20.612 24.5872 20.612ZM28.9241 20.612H29.8253C30.3601 20.612 30.5278 20.4595 30.5278 19.9254V19.0235C30.5278 18.4887 30.3595 18.3369 29.8253 18.3369H28.9241C28.3894 18.3369 28.2065 18.4887 28.2065 19.0235V19.9247C28.2065 20.4595 28.3894 20.612 28.9241 20.612ZM7.75756 34.1425C11.9731 34.1425 15.5158 30.6302 15.5158 26.3849C15.5158 22.1397 12.0186 18.6267 7.75822 18.6267C3.51236 18.6267 0 22.1391 0 26.3843C0 30.6605 3.51236 34.1425 7.75756 34.1425ZM7.77341 31.4244C7.23863 31.4244 6.76525 31.0573 6.76525 30.4928V27.3159H3.84841C3.32948 27.3159 2.90166 26.8887 2.90166 26.3849C2.90166 25.8805 3.32948 25.4534 3.84841 25.4534H6.76525V22.2916C6.76525 21.7113 7.23863 21.3448 7.77341 21.3448C8.29234 21.3448 8.76571 21.7113 8.76571 22.2916V25.4527H11.6826C12.2021 25.4527 12.6141 25.8805 12.6141 26.3849C12.6141 26.8894 12.2021 27.3159 11.6832 27.3159H8.76571V30.4928C8.76571 31.0573 8.29234 31.4244 7.77341 31.4244ZM20.2502 25.6204H21.1507C21.6855 25.6204 21.8532 25.4521 21.8532 24.9179V24.0167C21.8532 23.482 21.6855 23.3301 21.1507 23.3301H20.2502C19.7154 23.3301 19.5319 23.482 19.5319 24.0167V24.9179C19.5319 25.4527 19.7154 25.6204 20.2502 25.6204ZM24.5872 25.6204H25.4877C26.0225 25.6204 26.1902 25.4521 26.1902 24.9179V24.0167C26.1902 23.482 26.0225 23.3301 25.4877 23.3301H24.5872C24.0524 23.3301 23.8695 23.482 23.8695 24.0167V24.9179C23.8695 25.4527 24.0524 25.6204 24.5872 25.6204Z" fill="var(--fill-0, #151515)"/>
</g>
<defs>
<clipPath id="clip0_0_145">
<rect width="36.9722" height="36.9722" fill="white"/>
</clipPath>
</defs>
</svg>
