<svg preserveAspectRatio="none" width="100%" height="100%" overflow="visible" style="display: block;" viewBox="0 0 36.9722 36.9722" fill="none" xmlns="http://www.w3.org/2000/svg">
<g id="Checkmark Icon">
<path id="Vector" d="M15.2365 31.7083C15.902 31.7083 16.4282 31.4145 16.7992 30.8421L31.4224 7.81698C31.701 7.36803 31.8251 7.02802 31.8251 6.6715C31.8251 5.82048 31.2521 5.26392 30.4011 5.26392C29.7976 5.26392 29.4418 5.46462 29.0701 6.05288L15.1745 28.1959L7.96355 18.7568C7.57732 18.2154 7.20562 17.9989 6.63321 17.9989C5.76634 17.9989 5.14772 18.6023 5.14772 19.4533C5.14772 19.8092 5.30221 20.2113 5.59667 20.5823L13.6269 30.8117C14.1062 31.4151 14.571 31.7096 15.2359 31.7096" fill="var(--fill-0, #151515)"/>
</g>
</svg>
