<svg preserveAspectRatio="none" width="100%" height="100%" overflow="visible" style="display: block;" viewBox="0 0 36.9722 36.9722" fill="none" xmlns="http://www.w3.org/2000/svg">
<g id="Chevron Right Icon">
<path id="Vector" d="M12.2076 31.5151C12.5945 31.5151 12.9352 31.3606 13.2138 31.0971L25.4681 19.1049C25.7626 18.8111 25.9171 18.4553 25.9171 18.0684C25.9171 17.6657 25.7626 17.2946 25.4681 17.0318L13.2145 5.05483C13.0857 4.91715 12.9298 4.8076 12.7567 4.73306C12.5835 4.65853 12.3968 4.62062 12.2083 4.62173C12.0205 4.61851 11.834 4.65313 11.6598 4.72353C11.4857 4.79392 11.3275 4.89865 11.1946 5.03148C11.0618 5.1643 10.9571 5.3225 10.8867 5.49665C10.8163 5.67081 10.7817 5.85735 10.7849 6.04516C10.7849 6.41686 10.9552 6.78791 11.2028 7.05133L22.4509 18.0684L11.2008 29.0861C10.9539 29.3489 10.7836 29.7047 10.7836 30.0916C10.7836 30.8964 11.4035 31.5151 12.2076 31.5151Z" fill="var(--fill-0, #151515)"/>
</g>
</svg>
