<svg preserveAspectRatio="none" width="100%" height="100%" overflow="visible" style="display: block;" viewBox="0 0 36.9722 36.9722" fill="none" xmlns="http://www.w3.org/2000/svg">
<g id="Chevron Left Icon">
<path id="Vector" d="M23.5033 31.0824C23.7661 31.3452 24.1068 31.5003 24.5088 31.5003C25.3136 31.5003 25.9171 30.8962 25.9171 30.0921C25.9171 29.7052 25.7626 29.3493 25.5143 29.0859L14.2504 18.0688L25.5157 7.05113C25.7632 6.78836 25.9177 6.41732 25.9177 6.04562C25.9177 5.24081 25.3143 4.62153 24.5095 4.62153C24.1068 4.62153 23.7667 4.77668 23.504 5.03944L11.2477 17.0316C10.9539 17.2792 10.7836 17.6661 10.7836 18.0682C10.7836 18.4557 10.9539 18.8116 11.2477 19.1054L23.5033 31.0824Z" fill="var(--fill-0, #151515)"/>
</g>
</svg>
