<svg preserveAspectRatio="none" width="100%" height="100%" overflow="visible" style="display: block;" viewBox="0 0 36.9722 36.9722" fill="none" xmlns="http://www.w3.org/2000/svg">
<g id="24px/close">
<path id="Vector" d="M8.59076 26.4166C8.06456 26.9428 8.04938 27.8401 8.59076 28.3815C9.11695 28.9228 10.0142 28.9076 10.5556 28.3815L18.4782 20.4437L26.4166 28.3815C26.9428 28.9076 27.8401 28.9228 28.3663 28.3815C28.9235 27.8401 28.9076 26.9422 28.3663 26.4166L20.4437 18.4782L28.3663 10.5556C28.9076 10.0294 28.9235 9.11629 28.3663 8.59076C27.8401 8.04938 26.9428 8.06456 26.4166 8.59076L18.4782 16.5286L10.5556 8.59076C10.0142 8.06456 9.11629 8.04938 8.59076 8.59076C8.04938 9.11695 8.06456 10.03 8.59076 10.5556L16.5134 18.4782L8.59076 26.4166Z" fill="var(--fill-0, black)"/>
</g>
</svg>
