<svg preserveAspectRatio="none" width="100%" height="100%" overflow="visible" style="display: block;" viewBox="0 0 36.9722 36.9722" fill="none" xmlns="http://www.w3.org/2000/svg">
<g id="Delete Icon">
<path id="Vector" d="M29.3955 32.1262L30.4631 9.50384H32.01C32.6445 9.50384 33.1555 8.97764 33.1555 8.34317C33.1555 7.7087 32.6445 7.16667 32.01 7.16667H25.2481V4.846C25.2481 2.63295 23.7474 1.19433 21.3647 1.19433H15.5772C13.1938 1.19433 11.7083 2.63361 11.7083 4.84534V7.16667H4.97804C4.35942 7.16667 3.81738 7.70804 3.81738 8.34317C3.81738 8.97698 4.35876 9.50384 4.97804 9.50384H6.52559L7.59251 32.1421C7.70078 34.3703 9.17043 35.7779 11.3993 35.7779H25.5887C27.8011 35.7779 29.2866 34.3544 29.3949 32.1269M14.1841 5.00049C14.1841 4.11844 14.8344 3.49982 15.7627 3.49982H21.1943C22.1384 3.49982 22.7881 4.11844 22.7881 5.00049V7.16667H14.1841V5.00049ZM11.6311 33.4572C10.7332 33.4572 10.0683 32.7759 10.0221 31.8793L8.93935 9.50384H27.9866L26.9659 31.8786C26.9197 32.7917 26.2694 33.4565 25.3563 33.4565L11.6311 33.4572ZM23.0819 30.7338C23.5922 30.7338 23.9798 30.3159 23.995 29.7276L24.4591 13.3872C24.4743 12.7996 24.0722 12.3659 23.546 12.3659C23.0667 12.3659 22.664 12.8148 22.6481 13.3721L22.1846 29.7276C22.1688 30.2849 22.5557 30.7338 23.0819 30.7338ZM13.9062 30.7338C14.4324 30.7338 14.8186 30.2849 14.8034 29.7276L14.3393 13.3721C14.3234 12.8148 13.9062 12.3659 13.4262 12.3659C12.9 12.3659 12.5131 12.7996 12.5283 13.3872L13.0083 29.7276C13.0241 30.3159 13.3952 30.7338 13.9062 30.7338ZM19.4302 29.7276V13.3721C19.4302 12.8148 19.0123 12.3659 18.5013 12.3659C17.9909 12.3659 17.5572 12.8148 17.5572 13.3721V29.7276C17.5572 30.2849 17.9909 30.7338 18.5013 30.7338C18.9965 30.7338 19.4302 30.2849 19.4302 29.7276Z" fill="var(--fill-0, #151515)"/>
</g>
</svg>
