<svg preserveAspectRatio="none" width="100%" height="100%" overflow="visible" style="display: block;" viewBox="0 0 36.9722 36.9722" fill="none" xmlns="http://www.w3.org/2000/svg">
<g id="Like Icon">
<path id="Vector" d="M3.12085 13.6269C3.12085 20.2192 8.64489 26.7025 17.3565 32.2734C17.6971 32.4741 18.1613 32.6914 18.4861 32.6914C18.8109 32.6914 19.2751 32.4748 19.6006 32.2734C28.3273 26.7025 33.852 20.2192 33.852 13.6276C33.852 8.14973 30.0914 4.28085 25.0777 4.28085C22.1998 4.28085 19.8785 5.64288 18.4861 7.73181C17.093 5.65873 14.7572 4.28085 11.8945 4.28085C6.88079 4.28085 3.12019 8.14973 3.12019 13.6276M5.61119 13.6276C5.61119 9.51176 8.27253 6.77318 11.8628 6.77318C14.7717 6.77318 16.4275 8.58349 17.4331 10.131C17.851 10.7497 18.1144 10.92 18.4854 10.92C18.8565 10.92 19.0889 10.7345 19.5378 10.131C20.5896 8.61453 22.2144 6.77318 25.1081 6.77318C28.6984 6.77318 31.3597 9.51176 31.3597 13.6282C31.3597 19.384 25.2784 25.5894 18.7951 29.8907C18.6399 29.999 18.5475 30.0769 18.4854 30.0769C18.4234 30.0769 18.3151 29.9996 18.1606 29.8907C11.6925 25.5887 5.61185 19.384 5.61185 13.6276" fill="var(--fill-0, #151515)"/>
</g>
</svg>
