<svg preserveAspectRatio="none" width="100%" height="100%" overflow="visible" style="display: block;" viewBox="0 0 36.9722 36.9722" fill="none" xmlns="http://www.w3.org/2000/svg">
<g id="Location Icon">
<path id="Vector" d="M18.4861 20.7969C17.3435 20.7969 16.2266 20.4581 15.2766 19.8233C14.3266 19.1885 13.5862 18.2863 13.1489 17.2307C12.7117 16.1751 12.5973 15.0136 12.8202 13.8929C13.0431 12.7723 13.5933 11.743 14.4012 10.9351C15.2091 10.1272 16.2385 9.57696 17.3591 9.35405C18.4797 9.13115 19.6412 9.24555 20.6968 9.68279C21.7524 10.12 22.6547 10.8605 23.2894 11.8105C23.9242 12.7605 24.263 13.8774 24.263 15.02C24.2612 16.5515 23.652 18.0198 22.569 19.1028C21.486 20.1858 20.0177 20.795 18.4861 20.7969ZM18.4861 11.5538C17.8006 11.5538 17.1304 11.7571 16.5604 12.138C15.9904 12.5188 15.5461 13.0602 15.2838 13.6935C15.0215 14.3269 14.9528 15.0238 15.0866 15.6962C15.2203 16.3685 15.5504 16.9861 16.0352 17.4709C16.5199 17.9556 17.1375 18.2858 17.8099 18.4195C18.4823 18.5532 19.1792 18.4846 19.8125 18.2223C20.4459 17.9599 20.9872 17.5157 21.3681 16.9456C21.749 16.3756 21.9522 15.7055 21.9522 15.02C21.9513 14.101 21.5859 13.2199 20.936 12.57C20.2862 11.9202 19.4051 11.5547 18.4861 11.5538Z" fill="var(--fill-0, black)"/>
<path id="Vector_2" d="M18.4861 34.6614L8.73931 23.1666C8.60387 22.994 8.46984 22.8203 8.33723 22.6455C6.67315 20.4519 5.77381 17.7733 5.77691 15.02C5.77691 11.6493 7.11591 8.41664 9.49934 6.0332C11.8828 3.64976 15.1154 2.31076 18.4861 2.31076C21.8568 2.31076 25.0894 3.64976 27.4729 6.0332C29.8563 8.41664 31.1953 11.6493 31.1953 15.02C31.198 17.772 30.2991 20.4492 28.6361 22.642L28.635 22.6455C28.635 22.6455 28.2884 23.1007 28.2364 23.1619L18.4861 34.6614ZM10.1824 21.2532C10.1824 21.2532 10.4516 21.6091 10.5128 21.6854L18.4861 31.089L26.4698 21.6726C26.5206 21.6091 26.791 21.2509 26.7921 21.2498C28.1523 19.458 28.8873 17.2695 28.8845 15.02C28.8845 12.2621 27.789 9.61724 25.8389 7.66716C23.8888 5.71707 21.2439 4.62153 18.4861 4.62153C15.7283 4.62153 13.0834 5.71707 11.1333 7.66716C9.18322 9.61724 8.08767 12.2621 8.08767 15.02C8.08482 17.271 8.8207 19.4608 10.1824 21.2532Z" fill="var(--fill-0, black)"/>
</g>
</svg>
