<svg preserveAspectRatio="none" width="100%" height="100%" overflow="visible" style="display: block;" viewBox="0 0 36.9722 36.9722" fill="none" xmlns="http://www.w3.org/2000/svg">
<g id="Locked Icon">
<path id="Vector" d="M18.4861 2.70293C14.1683 2.70293 10.2228 5.78219 10.2228 12.111V15.6234C8.42834 15.871 7.53045 17.0316 7.53045 19.2288V30.6024C7.53045 33.1245 8.69111 34.2693 11.0124 34.2693H25.9598C28.2811 34.2693 29.4418 33.1245 29.4418 30.6024V19.2288C29.4418 17.0316 28.5439 15.871 26.7494 15.6241V12.111C26.7494 5.78219 22.8033 2.70293 18.4861 2.70293ZM12.7145 11.7704C12.7145 7.4532 15.2827 5.08566 18.4861 5.08566C21.6736 5.08566 24.2577 7.4532 24.2577 11.7704V15.5613H12.7145V11.7704ZM25.8825 17.8978C26.6101 17.8978 26.9501 18.2082 26.9501 19.0585V30.7569C26.9501 31.6231 26.6101 31.9486 25.8825 31.9486H11.0897C10.378 31.9486 10.0221 31.6231 10.0221 30.7569V19.0585C10.0221 18.2075 10.378 17.8978 11.0897 17.8978H25.8825Z" fill="var(--fill-0, #151515)"/>
</g>
</svg>
