<svg preserveAspectRatio="none" width="100%" height="100%" overflow="visible" style="display: block;" viewBox="0 0 36.9722 36.9722" fill="none" xmlns="http://www.w3.org/2000/svg">
<g id="24px/myspace">
<path id="Union" fill-rule="evenodd" clip-rule="evenodd" d="M8.79455 4.13542C6.79342 4.13542 5.24118 4.69153 4.18936 5.75009C3.13761 6.80858 2.59491 8.36072 2.59491 10.3351V20.6011C2.59491 22.5757 3.13746 24.128 4.18914 25.1866C5.24089 26.2452 6.79314 26.8013 8.79455 26.8013H17.3755L21.9953 30.8999C22.7967 31.6215 23.2692 31.9878 23.9526 31.9878C24.4373 31.9878 24.8239 31.814 25.0884 31.5019C25.3517 31.1912 25.4884 30.75 25.4884 30.2239V26.8013H26.0569C28.0648 26.8013 29.6171 26.2486 30.6673 25.1915C31.7174 24.1345 32.2566 22.5822 32.2566 20.6011V10.3351C32.2566 8.35429 31.7174 6.80209 30.6673 5.74516C29.6171 4.68816 28.0648 4.13542 26.0569 4.13542H8.79455ZM4.87567 10.3351C4.87567 9.03769 5.19503 8.06107 5.83965 7.40842C6.48413 6.75592 7.46412 6.41675 8.80828 6.41675H26.0569C27.4078 6.41675 28.384 6.75595 29.0232 7.40825C29.6626 8.06078 29.9753 9.03737 29.9753 10.3351V20.588C29.9753 21.8857 29.6626 22.8658 29.0231 23.5218C28.3838 24.1774 27.4076 24.52 26.0569 24.52H24.4215C24.0476 24.52 23.7726 24.5909 23.5928 24.769C23.4129 24.9473 23.342 25.2193 23.342 25.5869V29.3252L19.1719 25.1684C18.9131 24.903 18.6812 24.7391 18.4153 24.6428C18.1504 24.5469 17.857 24.52 17.4795 24.52H8.80828C7.46428 24.52 6.48429 24.1775 5.83976 23.5216C5.19503 22.8655 4.87567 21.8853 4.87567 20.588V10.3351Z" fill="var(--fill-0, #151515)"/>
</g>
</svg>
