<svg preserveAspectRatio="none" width="100%" height="100%" overflow="visible" style="display: block;" viewBox="0 0 36.9722 36.9722" fill="none" xmlns="http://www.w3.org/2000/svg">
<g id="24px/notification-bubble">
<path id="Subtract" fill-rule="evenodd" clip-rule="evenodd" d="M6.95804 29.464H13.4876C13.6117 32.435 15.9482 35.0494 19.2288 35.0494C22.4936 35.0494 24.8301 32.435 24.9543 29.464H31.4838C32.9541 29.464 33.821 28.7061 33.821 27.5916C33.821 26.207 32.5695 24.9466 31.3418 23.7102C31.1974 23.5647 31.0531 23.4194 30.9114 23.2744C29.89 22.2069 29.6114 20.0097 29.5032 18.2304C29.4627 16.2302 29.2673 14.4616 28.8771 12.9353C30.6544 12.1202 31.8888 10.3252 31.8888 8.24187C31.8888 5.39161 29.5782 3.08102 26.728 3.08102C25.1631 3.08102 23.7609 3.7775 22.8145 4.87738C21.9996 3.80005 20.749 3.08102 19.2288 3.08102C16.9379 3.08102 15.2827 4.69063 14.7565 6.70165C10.6407 8.18714 9.06215 12.1333 8.95388 18.2297C8.83042 20.0097 8.56699 22.2069 7.53045 23.2744C7.37323 23.4371 7.21257 23.6 7.05147 23.7633C5.84871 24.9828 4.62153 26.2269 4.62153 27.5923C4.62153 28.7061 5.50358 29.464 6.95804 29.464ZM27.0432 18.4159C27.0003 16.3376 26.7797 14.6939 26.4176 13.3935C23.7119 13.233 21.5671 10.9879 21.5671 8.24187C21.5671 8.0581 21.5767 7.87657 21.5955 7.69776C21.4154 6.29722 20.5285 5.35547 19.2288 5.35547C17.7896 5.35547 16.8765 6.48576 16.8144 8.1099C16.7992 8.49679 16.5979 8.69815 16.211 8.79124C13.5497 9.50296 11.538 11.6685 11.4145 18.4159C11.2745 21.4483 10.749 23.4289 9.65041 24.6668C9.38851 24.9585 9.11713 25.2485 8.85995 25.5234C8.31189 26.1092 7.82835 26.6261 7.63872 26.942V27.1268H30.8183V26.942C30.6405 26.6458 30.1983 26.1731 29.6926 25.6325C29.4057 25.3258 29.0983 24.9973 28.8073 24.6668C27.6928 23.4289 27.1666 21.4483 27.0432 18.4159ZM29.6549 8.24202C29.6549 9.34966 29.0397 10.3136 28.1323 10.8107C27.7154 11.0391 27.2368 11.169 26.7279 11.169C26.1604 11.169 25.6306 11.0075 25.1819 10.7279C24.7834 10.4795 24.449 10.138 24.2091 9.73375C23.9498 9.29691 23.801 8.78685 23.801 8.24202C23.801 7.74958 23.9226 7.28555 24.1374 6.87831C24.6278 5.94871 25.6039 5.31506 26.7279 5.31506C28.3445 5.31506 29.6549 6.6255 29.6549 8.24202ZM15.9013 29.464H22.5398C22.4316 31.5529 21.0854 32.8839 19.2288 32.8839C17.3565 32.8839 16.0255 31.5529 15.9013 29.464Z" fill="var(--fill-0, #151515)"/>
</g>
</svg>
