<svg preserveAspectRatio="none" width="100%" height="100%" overflow="visible" style="display: block;" viewBox="0 0 36.9722 36.9722" fill="none" xmlns="http://www.w3.org/2000/svg">
<g id="Notification Icon">
<path id="Vector" d="M6.95804 29.464H22.5398C22.4316 31.5529 21.0854 32.8839 19.2288 32.8839C17.3565 32.8839 16.0255 31.5529 15.9013 29.464H13.4876C13.6117 32.435 15.9482 35.0494 19.2288 35.0494C22.4936 35.0494 24.8301 32.435 24.9543 29.464H31.4838C32.9541 29.464 33.821 28.7061 33.821 27.5916C33.821 26.0441 32.2576 24.6517 30.9114 23.2744C29.89 22.2069 29.6114 20.0097 29.5032 18.2304C29.3797 12.1333 27.817 8.18714 23.6853 6.70165C23.1743 4.69063 21.5033 3.08102 19.2288 3.08102C16.9379 3.08102 15.2827 4.69063 14.7565 6.70165C10.6407 8.18714 9.06215 12.1333 8.95388 18.2297C8.83042 20.0097 8.56699 22.2069 7.53045 23.2744C6.19945 24.6517 4.62153 26.0441 4.62153 27.5923C4.62153 28.7061 5.50358 29.464 6.95804 29.464ZM7.63872 27.1268V26.942C7.91733 26.4778 8.83041 25.5799 9.65041 24.6668C10.749 23.4289 11.2745 21.4483 11.4145 18.4159C11.538 11.6685 13.5497 9.50296 16.211 8.79124C16.5979 8.69815 16.7992 8.49679 16.8144 8.1099C16.8765 6.48576 17.7896 5.35547 19.2288 5.35547C20.6523 5.35547 21.5805 6.4851 21.6274 8.1099C21.6426 8.49679 21.8592 8.69749 22.246 8.79058C24.8922 9.50296 26.9039 11.6691 27.0432 18.4159C27.1666 21.4483 27.6928 23.4289 28.8073 24.6668C29.6114 25.5799 30.5397 26.4778 30.8183 26.942V27.1268H7.63872Z" fill="var(--fill-0, #151515)"/>
</g>
</svg>
