<svg preserveAspectRatio="none" width="100%" height="100%" overflow="visible" style="display: block;" viewBox="0 0 36.9722 36.9722" fill="none" xmlns="http://www.w3.org/2000/svg">
<g id="24px/ourspace">
<path id="Union" d="M22.9455 4.62175C24.6392 4.62175 26.0097 5.11556 26.9563 6.05827C27.9031 7.00123 28.4054 8.37244 28.4055 10.0837V10.8522H30.1565C31.723 10.8523 33.0454 11.3285 33.9768 12.235C34.9091 13.1425 35.4318 14.4637 35.4319 16.1169V23.4079C35.4318 25.0611 34.9091 26.3822 33.9768 27.2897C33.0453 28.1963 31.7228 28.6725 30.1555 28.6725H29.8108V31.4635C29.8108 31.9586 29.688 32.3872 29.4338 32.695C29.1762 33.007 28.7994 33.1755 28.3352 33.1755C27.6626 33.1753 27.2108 32.791 26.4895 32.1598L22.4436 28.6735H18.303C16.6432 28.6735 15.2915 28.1867 14.3821 27.2477L10.3987 30.8376L10.3977 30.8385C10.0035 31.1871 9.68432 31.4279 9.37522 31.5798C9.061 31.7341 8.76318 31.7936 8.41722 31.7936C7.94513 31.7936 7.56094 31.6386 7.29808 31.3337C7.03839 31.0324 6.91628 30.6078 6.91624 30.1071V26.9089H5.4719C3.83794 26.9089 2.46585 26.4141 1.50218 25.4733C0.537752 24.5317 0.00022459 23.1605 0.00022459 21.446V10.0837C0.000323447 8.3694 0.537889 6.99882 1.50218 6.0573C2.46585 5.1165 3.83794 4.62175 5.4719 4.62175H22.9455ZM18.4123 13.0426C17.422 13.0426 16.657 13.3177 16.1399 13.8327C15.6234 14.3472 15.3303 15.1246 15.3303 16.1784V23.3464C15.3303 24.4069 15.6236 25.1842 16.1399 25.6969C16.6568 26.2102 17.4215 26.4821 18.4123 26.4821H22.4328C22.7797 26.4821 23.0452 26.5177 23.2912 26.6169C23.536 26.7156 23.7484 26.8725 23.9973 27.0925L23.9992 27.0944L27.6418 30.3923L27.6408 27.6637C27.6409 27.2765 27.7596 26.9748 27.9729 26.7712C28.1843 26.5693 28.4686 26.4831 28.7629 26.4831H30.0461C31.0305 26.483 31.795 26.2106 32.3137 25.6969C32.8318 25.1838 33.1282 24.4065 33.1282 23.3464V16.1784C33.1282 15.1246 32.8352 14.3472 32.3186 13.8327C31.8014 13.3178 31.0363 13.0427 30.0461 13.0426H18.4123ZM5.58226 6.81218C4.53131 6.81218 3.71723 7.10526 3.16624 7.65398C2.61571 8.20249 2.304 9.02979 2.30394 10.1452V21.3854C2.30402 22.5073 2.61532 23.331 3.16526 23.8747C3.71591 24.419 4.53023 24.7067 5.58226 24.7067H7.97679C8.27406 24.7067 8.55782 24.8012 8.7678 25.0094C8.97888 25.2189 9.09788 25.5254 9.09788 25.9128V29.0407L13.2375 25.1794C13.0927 24.6344 13.0266 24.0465 13.0266 23.4079V16.1169C13.0266 14.467 13.5137 13.145 14.4299 12.236C15.3458 11.3274 16.6701 10.8522 18.303 10.8522H26.1008V10.1452C26.1008 9.02951 25.7899 8.20241 25.2395 7.65398C24.6886 7.10508 23.8744 6.81218 22.8235 6.81218H5.58226Z" fill="var(--fill-0, #151515)"/>
</g>
</svg>
