<svg preserveAspectRatio="none" width="100%" height="100%" overflow="visible" style="display: block;" viewBox="0 0 36.9722 36.9722" fill="none" xmlns="http://www.w3.org/2000/svg">
<g id="24px/pause">
<path id="Vector" d="M13.38 31.2679C14.1069 31.2679 14.6951 30.7107 14.6951 29.9831V7.00491C14.695 6.83299 14.6607 6.66281 14.5944 6.50421C14.528 6.34561 14.4309 6.20174 14.3086 6.08091C14.1863 5.96008 14.0413 5.8647 13.8819 5.80028C13.7225 5.73586 13.5519 5.70368 13.38 5.7056C12.6524 5.7056 12.049 6.27801 12.049 7.00491V29.9838C12.049 30.7114 12.6524 31.2679 13.38 31.2679ZM23.6081 31.2679C24.335 31.2679 24.9232 30.7107 24.9232 29.9831V7.00491C24.9231 6.83299 24.8888 6.66281 24.8225 6.50421C24.7561 6.34561 24.659 6.20174 24.5367 6.08091C24.4144 5.96008 24.2694 5.8647 24.11 5.80028C23.9506 5.73586 23.78 5.70368 23.6081 5.7056C22.8805 5.7056 22.2771 6.27801 22.2771 7.00491V29.9838C22.2771 30.7114 22.8805 31.2679 23.6081 31.2679Z" fill="var(--fill-0, black)"/>
</g>
</svg>
