<svg preserveAspectRatio="none" width="100%" height="100%" overflow="visible" style="display: block;" viewBox="0 0 36.9722 36.9722" fill="none" xmlns="http://www.w3.org/2000/svg">
<g id="Pin Icon">
<path id="Vector" d="M29.109 19.0585L17.7354 30.4321C14.7803 33.4031 10.8031 33.1086 8.26593 30.5404C5.71287 28.0025 5.41841 24.057 8.38939 21.086L23.894 5.58082C25.6739 3.80153 28.289 3.55395 29.9911 5.24081C31.6779 6.95804 31.4303 9.55798 29.6662 11.3373L14.5169 26.5011C13.7438 27.2901 12.8307 27.0577 12.2886 26.5322C11.7631 25.9908 11.5459 25.0929 12.3197 24.3033L22.9036 13.7352C23.3684 13.2552 23.3988 12.5745 22.9498 12.1256C22.5016 11.6925 21.8209 11.7228 21.3567 12.1876L10.7259 22.8191C9.14798 24.397 9.20938 26.8108 10.6024 28.2039C12.119 29.7204 14.4244 29.6893 16.003 28.0956L31.2442 12.869C34.1379 9.97523 33.9986 6.16908 31.4917 3.64638C29.0159 1.18641 25.1629 1.00089 22.254 3.89396L6.65632 19.5075C2.83432 23.3295 3.12811 28.7914 6.57907 32.2424C10.03 35.6775 15.492 35.9713 19.314 32.1652L30.7648 20.7143C31.229 20.2654 31.2138 19.4454 30.749 19.0275C30.3 18.5482 29.5738 18.6096 29.109 19.0585Z" fill="var(--fill-0, #151515)"/>
</g>
</svg>
