<svg preserveAspectRatio="none" width="100%" height="100%" overflow="visible" style="display: block;" viewBox="0 0 36.9722 36.9722" fill="none" xmlns="http://www.w3.org/2000/svg">
<g id="Play Icon">
<path id="Vector" d="M8.64489 31.5848C9.26352 31.5848 9.78971 31.3372 10.409 30.9814L28.4514 20.5519C29.7356 19.7933 30.1845 19.2982 30.1845 18.4788C30.1845 17.6582 29.7356 17.163 28.4514 16.4203L10.409 5.97563C9.78971 5.61911 9.26352 5.38804 8.64489 5.38804C7.49942 5.38804 6.7877 6.25424 6.7877 7.59977V29.3566C6.7877 30.7028 7.49942 31.5848 8.64489 31.5848ZM9.43385 28.629C9.34142 28.629 9.27936 28.5676 9.27936 28.4435V8.51351C9.27936 8.38939 9.34076 8.32733 9.43385 8.32733C9.49591 8.32733 9.55798 8.35836 9.61938 8.40457L26.7494 18.3078C26.8266 18.3541 26.888 18.4009 26.888 18.4782C26.888 18.5554 26.8266 18.6175 26.7494 18.6485L9.61938 28.5676C9.55798 28.598 9.49592 28.629 9.43451 28.629" fill="var(--fill-0, black)"/>
</g>
</svg>
