<svg preserveAspectRatio="none" width="100%" height="100%" overflow="visible" style="display: block;" viewBox="0 0 36.9722 36.9722" fill="none" xmlns="http://www.w3.org/2000/svg">
<g id="Search Icon">
<path id="Vector" d="M15.8168 27.5773C18.2986 27.574 20.7172 26.7946 22.7339 25.3484L30.0683 32.6834C30.2331 32.8471 30.4286 32.9765 30.6437 33.0641C30.8588 33.1517 31.0892 33.1958 31.3214 33.1938C32.3276 33.1938 33.0545 32.42 33.0545 31.4297C33.0545 30.9655 32.9 30.5324 32.5593 30.1924L25.2712 22.8884C26.8029 20.8768 27.7159 18.3857 27.7159 15.6775C27.7159 9.13214 22.3622 3.77843 15.8168 3.77843C9.25626 3.77843 3.91773 9.13214 3.91773 15.6775C3.91773 22.2229 9.25626 27.5773 15.8168 27.5773ZM15.8168 25.0084C10.6949 25.0084 6.48598 20.7843 6.48598 15.6775C6.48598 10.5707 10.6955 6.34668 15.8168 6.34668C20.923 6.34668 25.1477 10.5714 25.1477 15.6775C25.1477 20.7843 20.923 25.0084 15.8168 25.0084Z" fill="var(--fill-0, #151515)"/>
</g>
</svg>
