<svg preserveAspectRatio="none" width="100%" height="100%" overflow="visible" style="display: block;" viewBox="0 0 36.9722 36.9722" fill="none" xmlns="http://www.w3.org/2000/svg">
<g id="Send Icon">
<path id="Vector" d="M21.6426 34.6945C22.757 34.6945 23.546 33.7358 24.1184 32.2503L34.2541 5.77427C34.5327 5.06255 34.703 4.42808 34.703 3.90189C34.703 2.89638 34.0686 2.27775 33.0624 2.27775C32.5362 2.27775 31.9017 2.43224 31.19 2.71086L4.57531 12.9073C3.27468 13.4024 2.26917 14.1914 2.26917 15.321C2.26917 16.7444 3.35259 17.2244 4.83808 17.6734L16.0103 20.9533L19.2599 31.9862C19.724 33.549 20.204 34.6945 21.6433 34.6945M16.7075 18.6023L6.02977 15.3369C5.78219 15.259 5.70494 15.1969 5.70494 15.0886C5.70494 14.9803 5.76634 14.9038 5.99874 14.8107L26.9191 6.88805C28.157 6.42392 29.3487 5.80464 30.4935 5.27844C29.4728 6.11428 28.2038 7.10461 27.3528 7.95563L16.7075 18.6023ZM21.8908 31.291C21.7674 31.291 21.7053 31.1821 21.6281 30.9345L18.3626 20.2581L29.0087 9.61211C29.8445 8.77628 30.881 7.47631 31.7017 6.42458C31.1755 7.59977 30.5562 8.79146 30.0769 10.0452L22.1543 30.9655C22.0612 31.1979 21.9991 31.291 21.8908 31.291Z" fill="var(--fill-0, #151515)"/>
</g>
</svg>
