<svg preserveAspectRatio="none" width="100%" height="100%" overflow="visible" style="display: block;" viewBox="0 0 36.9722 36.9722" fill="none" xmlns="http://www.w3.org/2000/svg">
<g id="Settings Icon">
<path id="Vector" d="M14.7176 3.0918L16.0545 4.57267C17.5202 6.19549 19.899 6.19152 21.36 4.57267L22.6144 3.18357C24.1344 3.59333 25.5844 4.22823 26.9164 5.06717L26.826 6.83656C26.7144 9.02056 28.3999 10.6995 30.5773 10.5886L32.1784 10.5067C33.003 11.919 33.603 13.451 33.957 15.0477L32.8412 16.0545C31.2191 17.5202 31.2237 19.899 32.8412 21.36L33.8718 22.2896C33.4698 23.9187 32.8106 25.4732 31.9189 26.8946L30.5773 26.826C28.394 26.7144 26.7151 28.3999 26.826 30.5773L26.8946 31.9189C25.4732 32.8106 23.9187 33.4698 22.2896 33.8718L21.36 32.8419C19.8943 31.2191 17.5156 31.223 16.0545 32.8419L15.0477 33.9577C13.451 33.6035 11.919 33.0032 10.5067 32.1784L10.5886 30.5773C10.7002 28.394 9.01462 26.7151 6.83722 26.826L5.06783 26.9164C4.2286 25.5843 3.59348 24.134 3.18357 22.6138L4.57267 21.3594C6.19549 19.895 6.19152 17.5156 4.57267 16.0545L3.0918 14.7176C3.455 13.2308 4.03258 11.8047 4.80639 10.4843L6.83722 10.5879C9.02056 10.6995 10.6995 9.01396 10.5886 6.83656L10.4843 4.80639C11.8043 4.0327 13.2299 3.45512 14.7163 3.0918M13.6837 5.57884C13.4477 5.66665 13.2141 5.76088 12.9832 5.86142L13.0004 6.20011C13.1997 10.1007 10.104 13.1997 6.20011 13.0004L5.86142 12.9832C5.76106 13.2143 5.66687 13.4475 5.57884 13.683L5.8251 13.9062C8.72412 16.5233 8.72676 20.9032 5.8251 23.5229L5.71155 23.6259C5.82158 23.8992 5.94042 24.1688 6.06806 24.4347L6.20011 24.4281C10.0624 24.2307 13.1397 27.265 13.0056 31.1161C13.3313 31.2574 13.6626 31.3859 13.9993 31.5016C16.5556 28.7802 20.7044 28.7366 23.311 31.3788C23.6873 31.238 24.0568 31.0806 24.4195 30.9068C24.401 27.2657 27.263 24.401 30.9068 24.4195C31.0802 24.0568 31.2376 23.6871 31.3788 23.3103C28.7386 20.7064 28.7776 16.5576 31.5016 13.9993C31.3863 13.6626 31.2576 13.3313 31.1154 13.0056C27.3297 13.1377 24.3277 10.1627 24.4208 6.38365L24.4347 6.06806C24.1689 5.94066 23.8992 5.82176 23.6259 5.71155L23.5229 5.8251C20.9058 8.72412 16.5253 8.72676 13.9062 5.8251L13.6837 5.57884ZM18.4861 12.5441C19.2664 12.5441 20.0391 12.6978 20.76 12.9964C21.4809 13.2951 22.1359 13.7327 22.6877 14.2845C23.2395 14.8363 23.6771 15.4913 23.9758 16.2122C24.2744 16.9331 24.4281 17.7058 24.4281 18.4861C24.4281 19.2664 24.2744 20.0391 23.9758 20.76C23.6771 21.4809 23.2395 22.1359 22.6877 22.6877C22.1359 23.2395 21.4809 23.6771 20.76 23.9758C20.0391 24.2744 19.2664 24.4281 18.4861 24.4281C16.9102 24.4281 15.3988 23.802 14.2845 22.6877C13.1702 21.5734 12.5441 20.062 12.5441 18.4861C12.5441 16.9102 13.1702 15.3988 14.2845 14.2845C15.3988 13.1702 16.9102 12.5441 18.4861 12.5441ZM18.4861 14.5248C17.9659 14.5248 17.4508 14.6273 16.9702 14.8263C16.4896 15.0254 16.0529 15.3172 15.685 15.685C15.3172 16.0529 15.0254 16.4896 14.8263 16.9702C14.6273 17.4508 14.5248 17.9659 14.5248 18.4861C14.5248 19.0063 14.6273 19.5214 14.8263 20.002C15.0254 20.4826 15.3172 20.9193 15.685 21.2872C16.0529 21.655 16.4896 21.9468 16.9702 22.1459C17.4508 22.345 17.9659 22.4474 18.4861 22.4474C19.5367 22.4474 20.5443 22.0301 21.2872 21.2872C22.0301 20.5443 22.4474 19.5367 22.4474 18.4861C22.4474 17.4355 22.0301 16.4279 21.2872 15.685C20.5443 14.9421 19.5367 14.5248 18.4861 14.5248Z" fill="var(--fill-0, #151515)"/>
</g>
</svg>
