<svg preserveAspectRatio="none" width="100%" height="100%" overflow="visible" style="display: block;" viewBox="0 0 36.9722 36.9722" fill="none" xmlns="http://www.w3.org/2000/svg">
<g id="Stop Icon">
<path id="Vector (Stroke)" fill-rule="evenodd" clip-rule="evenodd" d="M8.66536 8.08767C8.34631 8.08767 8.08767 8.34631 8.08767 8.66536V28.3068C8.08767 28.6259 8.34631 28.8845 8.66536 28.8845H28.3068C28.6259 28.8845 28.8845 28.6259 28.8845 28.3068V8.66536C28.8845 8.34631 28.6259 8.08767 28.3068 8.08767H8.66536ZM5.77691 8.66536C5.77691 7.07011 7.07011 5.77691 8.66536 5.77691H28.3068C29.9021 5.77691 31.1953 7.07011 31.1953 8.66536V28.3068C31.1953 29.9021 29.9021 31.1953 28.3068 31.1953H8.66536C7.07011 31.1953 5.77691 29.9021 5.77691 28.3068V8.66536Z" fill="var(--fill-0, black)"/>
</g>
</svg>
