<svg preserveAspectRatio="none" width="100%" height="100%" overflow="visible" style="display: block;" viewBox="0 0 36.9722 36.9722" fill="none" xmlns="http://www.w3.org/2000/svg">
<g id="Tools Icon" clip-path="url(#clip0_0_125)">
<path id="Vector" d="M35.2172 19.4551C36.0721 19.0418 36.4861 18.4569 36.4861 17.8574C36.4861 17.2731 36.0728 16.7311 35.2172 16.4313L28.2703 14.0347L31.2512 7.94422C31.3922 7.66052 31.4655 7.34795 31.4651 7.03114C31.4651 6.20389 30.8379 5.59054 30.0245 5.59054C29.7075 5.58773 29.3943 5.66108 29.1115 5.80445L22.807 8.88569L19.5258 1.85371C19.1692 1.06871 18.585 0.669278 18.0007 0.669278C17.4296 0.669278 16.8453 1.06871 16.4881 1.85371L13.2068 8.88503L6.9024 5.80445C6.61889 5.66354 6.30657 5.59032 5.98997 5.59054C5.17659 5.59054 4.53485 6.20455 4.53485 7.03114C4.53485 7.31635 4.60616 7.63062 4.76329 7.94422L7.74417 14.0347L0.783496 16.4313C-0.0437571 16.7165 -0.486103 17.287 -0.486103 17.8719C-0.486103 18.4569 -0.0582818 19.0418 0.783496 19.4551L7.44509 22.6506L3.84955 30.2675C3.6947 30.5676 3.61175 30.8997 3.60725 31.2374C3.60725 31.9788 4.10637 32.507 4.80488 32.507C5.10462 32.507 5.43275 32.4073 5.7754 32.2072L14.2909 27.1724L16.63 34.3899C16.9014 35.1888 17.4441 35.6021 18 35.6021C18.585 35.6021 19.1125 35.1888 19.3693 34.3899L21.7236 27.1711L30.2391 32.2066C30.5818 32.4066 30.9099 32.4918 31.1951 32.4918C31.8798 32.4918 32.4073 31.9927 32.4073 31.2506C32.4073 30.9515 32.3214 30.6088 32.165 30.2669L28.5562 22.6499L35.2172 19.4551ZM33.4339 17.8864V17.9855L26.1306 21.1809C25.8599 21.2951 25.7312 21.4807 25.7312 21.7091C25.7312 21.7949 25.7595 21.9085 25.817 22.0082L29.5822 29.5829L29.4964 29.6687L21.1096 24.3619C20.967 24.2906 20.8389 24.2338 20.7247 24.2338C20.4963 24.2338 20.3253 24.4054 20.2395 24.69L18.0574 32.0792H17.9571L15.7751 24.69C15.6892 24.4048 15.5044 24.2338 15.2759 24.2338C15.1617 24.2338 15.033 24.2906 14.9049 24.3619L6.51749 29.668L6.43166 29.5822L10.1975 22.0082C10.2496 21.9168 10.279 21.8142 10.2834 21.7091C10.2834 21.4807 10.1408 21.2951 9.88394 21.1809L2.58061 17.9855V17.8864L10.1546 15.5466C10.4398 15.4608 10.597 15.2759 10.597 15.0475C10.5971 14.9263 10.5625 14.8076 10.4973 14.7055L7.10244 8.20105L7.17375 8.12974L13.7211 11.5814C13.8492 11.6527 13.9634 11.6811 14.0631 11.6811C14.277 11.6811 14.4487 11.553 14.5622 11.2961L17.9571 3.66469H18.0574L21.4516 11.2968C21.552 11.553 21.723 11.6811 21.9369 11.6811C22.0511 11.6811 22.1653 11.6527 22.2934 11.582L28.8408 8.12908L28.9121 8.20105L25.5027 14.7055C25.4459 14.8191 25.4037 14.9333 25.4037 15.0475C25.4037 15.2759 25.5602 15.4615 25.8592 15.5466L33.4339 17.8864Z" fill="var(--fill-0, black)"/>
</g>
<defs>
<clipPath id="clip0_0_125">
<rect width="36.9722" height="36.9722" fill="white"/>
</clipPath>
</defs>
</svg>
