<svg preserveAspectRatio="none" width="100%" height="100%" overflow="visible" style="display: block;" viewBox="0 0 36.9722 36.9722" fill="none" xmlns="http://www.w3.org/2000/svg">
<g id="Typing Icon">
<path id="Vector" d="M23.081 34.0407H32.1181C32.814 34.0407 33.1857 33.7006 33.1857 33.1282C33.1857 32.54 32.8146 32.2303 32.1181 32.2303H28.6361V3.61913H32.1181C32.814 3.61913 33.1857 3.2943 33.1857 2.70605C33.1857 2.13364 32.8146 1.82466 32.1181 1.82466H23.081C22.3693 1.82466 22.0135 2.13364 22.0135 2.70671C22.0135 3.29431 22.37 3.61913 23.081 3.61913H26.5472V32.2303H23.081C22.3693 32.2303 22.0135 32.54 22.0135 33.1282C22.0135 33.7006 22.37 34.0407 23.081 34.0407ZM12.0488 29.3993C12.9302 29.3993 13.5184 28.8414 13.5184 27.9442V9.51488H19.8011C20.5742 9.51488 21.1314 9.00453 21.1314 8.21491C21.1314 7.42595 20.5742 6.91494 19.8011 6.91494H4.32689C3.53793 6.91494 2.98004 7.42595 2.98004 8.21557C2.98004 9.00519 3.53793 9.51488 4.32689 9.51488H10.6095V27.9442C10.6095 28.8421 11.1661 29.3993 12.0488 29.3993Z" fill="var(--fill-0, black)"/>
</g>
</svg>
