<svg preserveAspectRatio="none" width="100%" height="100%" overflow="visible" style="display: block;" viewBox="0 0 36.9722 36.9722" fill="none" xmlns="http://www.w3.org/2000/svg">
<g id="Voicemail Icon">
<path id="Vector" d="M24.1263 17.7282V7.99458C24.1263 4.42016 21.8209 1.92916 18.494 1.92916C15.1672 1.92916 12.861 4.42016 12.861 7.99458V17.7282C12.861 21.2867 15.1672 23.7936 18.494 23.7936C21.8209 23.7936 24.1263 21.2867 24.1263 17.7282ZM21.7885 17.7282C21.7885 20.0178 20.474 21.4881 18.4934 21.4881C16.5127 21.4881 15.1976 20.0178 15.1976 17.7282V7.99458C15.1976 5.70494 16.5127 4.23464 18.4934 4.23464C20.474 4.23464 21.7892 5.70494 21.7892 7.99458L21.7885 17.7282ZM11.5776 32.7065C11.4239 32.7067 11.2718 32.7373 11.1301 32.7967C10.9884 32.856 10.8598 32.9429 10.7519 33.0522C10.6439 33.1616 10.5587 33.2913 10.5012 33.4338C10.4437 33.5763 10.4151 33.7287 10.4169 33.8824C10.4153 34.0352 10.4443 34.1869 10.502 34.3284C10.5598 34.47 10.6452 34.5985 10.7533 34.7066C10.8614 34.8147 10.99 34.9002 11.1315 34.9579C11.2731 35.0157 11.4247 35.0446 11.5776 35.043H25.4111C25.564 35.0446 25.7156 35.0157 25.8572 34.9579C25.9987 34.9002 26.1273 34.8147 26.2354 34.7066C26.3435 34.5985 26.4289 34.47 26.4867 34.3284C26.5444 34.1869 26.5734 34.0352 26.5718 33.8824C26.5735 33.7288 26.5448 33.5764 26.4873 33.434C26.4298 33.2915 26.3446 33.1619 26.2366 33.0527C26.1287 32.9434 26.0002 32.8566 25.8585 32.7973C25.7168 32.738 25.5647 32.7074 25.4111 32.7072H19.6547V29.1011C25.5656 28.6059 29.558 24.366 29.558 18.2847V15.1441C29.5595 14.9912 29.5306 14.8396 29.4728 14.698C29.4151 14.5565 29.3296 14.4279 29.2216 14.3198C29.1135 14.2117 28.9849 14.1263 28.8433 14.0685C28.7018 14.0108 28.5502 13.9818 28.3973 13.9834C28.2436 13.9815 28.091 14.0101 27.9485 14.0675C27.8059 14.125 27.6761 14.2102 27.5667 14.3181C27.4573 14.4261 27.3704 14.5547 27.311 14.6964C27.2516 14.8382 27.2209 14.9904 27.2208 15.1441V18.1923C27.2208 23.4688 23.7857 26.9659 18.494 26.9659C13.2024 26.9659 9.75142 23.4688 9.75142 18.1916V15.1441C9.75301 14.9912 9.72407 14.8396 9.66631 14.698C9.60854 14.5565 9.52311 14.4279 9.41501 14.3198C9.30692 14.2117 9.17833 14.1263 9.0368 14.0685C8.89526 14.0108 8.74362 13.9818 8.59076 13.9834C8.43706 13.9815 8.2845 14.0101 8.14193 14.0675C7.99936 14.125 7.8696 14.2102 7.76017 14.3181C7.65075 14.4261 7.56383 14.5547 7.50445 14.6964C7.44507 14.8382 7.41441 14.9904 7.41425 15.1441V18.2847C7.41425 24.366 11.4218 28.6059 17.3175 29.1011V32.7065H11.5776Z" fill="var(--fill-0, #151515)"/>
</g>
</svg>
